<?xml version="1.0" encoding="UTF-8" standalone="no"?>
<svg
   version="1.1"
   viewBox="-5.0 -10.0 110.0 135.0"
   id="svg40"
   sodipodi:docname="biopsy.svg"
   inkscape:version="1.1.2 (0a00cf5339, 2022-02-04)"
   xmlns:inkscape="http://www.inkscape.org/namespaces/inkscape"
   xmlns:sodipodi="http://sodipodi.sourceforge.net/DTD/sodipodi-0.dtd"
   xmlns="http://www.w3.org/2000/svg"
   xmlns:svg="http://www.w3.org/2000/svg">
  <defs
     id="defs44" />
  <sodipodi:namedview
     id="namedview42"
     pagecolor="#ffffff"
     bordercolor="#666666"
     borderopacity="1.0"
     inkscape:pageshadow="2"
     inkscape:pageopacity="0.0"
     inkscape:pagecheckerboard="0"
     showgrid="false"
     inkscape:zoom="5.3259259"
     inkscape:cx="54.920028"
     inkscape:cy="67.5"
     inkscape:window-width="1850"
     inkscape:window-height="1136"
     inkscape:window-x="0"
     inkscape:window-y="0"
     inkscape:window-maximized="1"
     inkscape:current-layer="svg40" />
  <path
     d="m43.668 79.738c-0.37109 0-0.74609-0.14062-1.0273-0.42578l-20.57-20.57c-0.27344-0.27344-0.42578-0.64453-0.42578-1.0273 0-0.38672 0.15234-0.75391 0.42578-1.0273l41.141-41.145c0.27344-0.27344 0.64453-0.42578 1.0273-0.42578 0.38672 0 0.75391 0.15234 1.0273 0.42578l20.574 20.57c0.56641 0.56641 0.56641 1.4883 0 2.0586l-41.141 41.141c-0.28516 0.28516-0.65625 0.42578-1.0312 0.42578zm-18.512-22.023 18.512 18.512 39.082-39.082-18.512-18.516z"
     id="path2" />
  <path
     d="m32.355 76.652c-0.37109 0-0.74609-0.14062-1.0273-0.42578l-6.1719-6.1719c-0.27344-0.27344-0.42578-0.64453-0.42578-1.0273 0-0.38672 0.15234-0.75391 0.42578-1.0273l4.1133-4.1133c0.56641-0.56641 1.4883-0.56641 2.0586 0l6.1719 6.1719c0.27344 0.27344 0.42578 0.64453 0.42578 1.0273 0 0.38672-0.15234 0.75391-0.42578 1.0273l-4.1172 4.1133c-0.28125 0.28516-0.65625 0.42578-1.0273 0.42578zm-4.1133-7.625 4.1133 4.1133 2.0586-2.0586-4.1133-4.1133z"
     id="path4" />
  <path
     d="m47.785 30.867c-2.7188 0-5.2773-1.0586-7.1992-2.9805-1.9219-1.9219-2.9805-4.4805-2.9805-7.1992s1.0586-5.2773 2.9805-7.1992c1.9219-1.9219 4.4805-2.9805 7.1992-2.9805s5.2773 1.0586 7.1992 2.9805 2.9805 4.4805 2.9805 7.1992-1.0586 5.2773-2.9805 7.1992-4.4766 2.9805-7.1992 2.9805zm0-17.453c-1.9414 0-3.7695 0.75781-5.1406 2.1289-1.375 1.375-2.1289 3.1992-2.1289 5.1406s0.75781 3.7695 2.1289 5.1445c1.375 1.375 3.1992 2.1289 5.1406 2.1289s3.7695-0.75781 5.1406-2.1289c1.375-1.375 2.1289-3.1992 2.1289-5.1445 0-1.9414-0.75781-3.7695-2.1289-5.1406-1.3711-1.3711-3.1953-2.1289-5.1406-2.1289z"
     id="path6" />
  <path
     d="m80.699 63.777c-2.6094 0-5.2148-0.99219-7.1992-2.9766-3.9688-3.9688-3.9688-10.43 0-14.398 1.9219-1.9219 4.4805-2.9805 7.1992-2.9805s5.2773 1.0586 7.1992 2.9805c3.9688 3.9688 3.9688 10.43 0 14.398-1.9844 1.9844-4.5898 2.9766-7.1992 2.9766zm0-17.449c-1.9414 0-3.7695 0.75781-5.1406 2.1289-2.8359 2.8359-2.8359 7.4492 0 10.285 1.375 1.375 3.1992 2.1289 5.1406 2.1289 1.9414 0 3.7695-0.75781 5.1406-2.1289 2.8359-2.8359 2.8359-7.4492 0-10.285-1.3711-1.375-3.1992-2.1289-5.1406-2.1289z"
     id="path8" />
  <path
     d="m79.668 33.457c-0.37109 0-0.74609-0.14062-1.0273-0.42578l-10.285-10.285c-0.56641-0.56641-0.56641-1.4883 0-2.0586l8.2266-8.2266c0.56641-0.56641 1.4883-0.56641 2.0586 0l10.285 10.285c0.56641 0.56641 0.56641 1.4883 0 2.0586l-8.2266 8.2266c-0.28906 0.28125-0.66016 0.42578-1.0312 0.42578zm-8.2305-11.742 8.2266 8.2266 6.1719-6.1719-8.2266-8.2266z"
     id="path10" />
  <path
     d="m90.98 28.312c-0.38672 0-0.75391-0.15234-1.0273-0.42578l-16.457-16.457c-0.56641-0.56641-0.56641-1.4883 0-2.0586l4.1133-4.1133c0.27344-0.27344 0.64453-0.42578 1.0273-0.42578 0.38672 0 0.75391 0.15234 1.0273 0.42578l16.457 16.457c0.56641 0.56641 0.56641 1.4883 0 2.0586l-4.1133 4.1133c-0.26953 0.27344-0.64062 0.42578-1.0273 0.42578zm-14.398-17.91 14.398 14.398 2.0586-2.0586-14.398-14.398z"
     id="path12" />
  <path
     d="m7.6758 95.168c-0.37109 0-0.74609-0.14062-1.0273-0.42578-0.56641-0.56641-0.56641-1.4883 0-2.0586l21.598-21.598c0.56641-0.56641 1.4883-0.56641 2.0586 0 0.56641 0.56641 0.56641 1.4883 0 2.0586l-21.602 21.598c-0.28516 0.28125-0.65625 0.42578-1.0273 0.42578z"
     id="path14" />
  <path
     d="m50.871 72.539c-0.37109 0-0.74609-0.14062-1.0273-0.42578l-20.57-20.57c-0.56641-0.56641-0.56641-1.4883 0-2.0586 0.56641-0.56641 1.4883-0.56641 2.0586 0l20.57 20.57c0.56641 0.56641 0.56641 1.4883 0 2.0586-0.28516 0.28516-0.65625 0.42578-1.0312 0.42578z"
     id="path16" />
  <path
     d="m67.328 35.512c-0.37109 0-0.74609-0.14062-1.0273-0.42578l-6.1719-6.1719c-0.56641-0.56641-0.56641-1.4883 0-2.0586 0.56641-0.56641 1.4883-0.56641 2.0586 0l6.1719 6.1719c0.56641 0.56641 0.56641 1.4883 0 2.0586-0.28516 0.28516-0.66016 0.42578-1.0312 0.42578z"
     id="path18" />
  <path
     d="m61.156 41.684c-0.37109 0-0.74609-0.14062-1.0273-0.42578l-6.1719-6.1719c-0.56641-0.56641-0.56641-1.4883 0-2.0586 0.57031-0.56641 1.4883-0.56641 2.0586 0l6.1719 6.1719c0.56641 0.56641 0.56641 1.4883 0 2.0586-0.28516 0.28516-0.65625 0.42578-1.0312 0.42578z"
     id="path20" />
  <path
     d="m54.988 47.855c-0.37109 0-0.74609-0.14062-1.0273-0.42578l-6.1719-6.1719c-0.56641-0.56641-0.56641-1.4883 0-2.0586 0.56641-0.56641 1.4883-0.56641 2.0586 0l6.1719 6.1719c0.56641 0.56641 0.56641 1.4883 0 2.0586-0.28906 0.28125-0.66016 0.42578-1.0312 0.42578z"
     id="path22" />
  <path
     d="m48.816 54.027c-0.37109 0-0.74609-0.14062-1.0273-0.42578l-6.1719-6.1719c-0.56641-0.56641-0.56641-1.4883 0-2.0586 0.56641-0.56641 1.4883-0.56641 2.0586 0l6.1719 6.1719c0.56641 0.56641 0.56641 1.4883 0 2.0586-0.28906 0.28125-0.66016 0.42578-1.0312 0.42578z"
     id="path24" />
</svg>
