<?xml version="1.0" encoding="UTF-8" standalone="no"?>
<svg
   version="1.1"
   viewBox="-5.0 -10.0 110.0 135.0"
   id="svg8"
   sodipodi:docname="scalpel.svg"
   inkscape:version="1.1.2 (0a00cf5339, 2022-02-04)"
   xmlns:inkscape="http://www.inkscape.org/namespaces/inkscape"
   xmlns:sodipodi="http://sodipodi.sourceforge.net/DTD/sodipodi-0.dtd"
   xmlns="http://www.w3.org/2000/svg"
   xmlns:svg="http://www.w3.org/2000/svg">
  <defs
     id="defs12" />
  <sodipodi:namedview
     id="namedview10"
     pagecolor="#ffffff"
     bordercolor="#666666"
     borderopacity="1.0"
     inkscape:pageshadow="2"
     inkscape:pageopacity="0.0"
     inkscape:pagecheckerboard="0"
     showgrid="false"
     inkscape:zoom="5.3259259"
     inkscape:cx="54.920028"
     inkscape:cy="67.5"
     inkscape:window-width="1850"
     inkscape:window-height="1136"
     inkscape:window-x="0"
     inkscape:window-y="0"
     inkscape:window-maximized="1"
     inkscape:current-layer="svg8" />
  <path
     d="m92.438 9.8125-2.9219-2.918c-0.875-0.875-2.043-1.3594-3.2852-1.3594-1.2422 0-2.4102 0.48047-3.2852 1.3594l-44.824 44.82c-0.99609 0.98828-1.4609 2.2812-1.3086 3.6406l0.16797 1.5156-31.219 31.219c-0.5625 0.5625-0.83203 1.332-0.74609 2.1172 0.082031 0.78906 0.51172 1.4883 1.1836 1.9141 2.4336 1.5586 5.0742 2.3398 7.8945 2.3398 2.8047 0 5.7891-0.76953 8.9336-2.3125 5.9336-2.9102 12.641-8.7148 19.934-17.262 0.35547-0.41797 0.5-0.97656 0.38281-1.5156l-1.0156-4.7305 3.875-3.875c0.48438 0.21875 1.0039 0.32812 1.5391 0.32812 1.1367 0 2.3164-0.48047 3.2344-1.4023l41.457-41.465c1.6562-1.6523 2.5664-3.8555 2.5664-6.207 0-2.3516-0.91016-4.5547-2.5625-6.207zm-53.762 58.633 1.0312 4.8164c-12.758 14.762-23.039 20.297-30.594 16.469l29.918-29.918 4.1953 2.9414-4.0703 4.0703c-0.42578 0.42578-0.60547 1.0352-0.48047 1.6211zm51.266-48.715-41.457 41.465c-0.33984 0.33594-0.73828 0.42188-0.83594 0.35547l-0.69531-0.48828c-0.011719-0.007812-0.019531-0.015625-0.03125-0.023438l-6.4258-4.5078-0.17188-1.5703c-0.023438-0.19141-0.007813-0.44922 0.28906-0.74609l44.828-44.824c0.4375-0.43359 1.1445-0.43359 1.582 0l2.9219 2.918c2.043 2.0469 2.043 5.375-0.003906 7.4219zm-56.996 51.75c0.6875 0.6875 0.6875 1.8047 0 2.4961l-8.4531 8.4531c-0.34375 0.34375-0.79688 0.51562-1.2461 0.51562-0.45312 0-0.90234-0.17187-1.2461-0.51562-0.6875-0.6875-0.6875-1.8047 0-2.4961l8.4531-8.4531c0.68359-0.6875 1.8008-0.6875 2.4922 0zm33.75-32.938c0.6875 0.69141 0.6875 1.8086-0.003906 2.4961-0.34375 0.34375-0.79688 0.51563-1.2461 0.51563-0.45312 0-0.90234-0.17188-1.25-0.51953l-2.9336-2.9375c-0.6875-0.69141-0.6875-1.8086 0.003906-2.4961s1.8047-0.6875 2.4961 0.003907zm-4.9648 4.9648c0.6875 0.6875 0.6875 1.8047 0 2.4961-0.34375 0.34375-0.79688 0.51562-1.2461 0.51562-0.45312 0-0.90234-0.17188-1.2461-0.51562l-2.9336-2.9336c-0.6875-0.6875-0.6875-1.8047 0-2.4961 0.6875-0.6875 1.8047-0.6875 2.4961 0zm-4.9688 4.9648c0.69141 0.6875 0.69141 1.8047 0.003906 2.4961-0.34375 0.34375-0.79688 0.51953-1.25 0.51953-0.44922 0-0.90234-0.17188-1.2461-0.51562l-2.9375-2.9336c-0.69141-0.6875-0.69141-1.8047-0.003906-2.4961 0.6875-0.69141 1.8047-0.69141 2.4961-0.003907zm-4.9609 4.9688c0.6875 0.6875 0.6875 1.8047 0 2.4961-0.34375 0.34375-0.79688 0.51562-1.2461 0.51562-0.45313 0-0.90234-0.17188-1.2461-0.51562l-2.9375-2.9375c-0.6875-0.6875-0.6875-1.8047 0-2.4961 0.6875-0.6875 1.8047-0.6875 2.4961 0z"
     id="path2" />
</svg>
