<?xml version="1.0" encoding="UTF-8" standalone="no"?>
<svg
   version="1.1"
   viewBox="-5.0 -10.0 110.0 135.0"
   id="svg8"
   sodipodi:docname="tube.svg"
   inkscape:version="1.1.2 (0a00cf5339, 2022-02-04)"
   xmlns:inkscape="http://www.inkscape.org/namespaces/inkscape"
   xmlns:sodipodi="http://sodipodi.sourceforge.net/DTD/sodipodi-0.dtd"
   xmlns="http://www.w3.org/2000/svg"
   xmlns:svg="http://www.w3.org/2000/svg">
  <defs
     id="defs12" />
  <sodipodi:namedview
     id="namedview10"
     pagecolor="#ffffff"
     bordercolor="#666666"
     borderopacity="1.0"
     inkscape:pageshadow="2"
     inkscape:pageopacity="0.0"
     inkscape:pagecheckerboard="0"
     showgrid="false"
     inkscape:zoom="5.3259259"
     inkscape:cx="54.920028"
     inkscape:cy="67.5"
     inkscape:window-width="1850"
     inkscape:window-height="1136"
     inkscape:window-x="0"
     inkscape:window-y="0"
     inkscape:window-maximized="1"
     inkscape:current-layer="svg8" />
  <path
     d="m65.699 4h-31.398c-3.3008 0-6 2.6992-6 6v6.3984c0 2.8008 1.8984 5.1016 4.3984 5.8008v56.5c0 9.5 7.8008 17.301 17.301 17.301s17.301-7.8008 17.301-17.301v-56.5c2.5-0.69922 4.3984-3 4.3984-5.8008v-6.3984c0-3.3008-2.6992-6-6-6zm-2.3984 36.5h-5.3008c-1.1016 0-2 0.89844-2 2s0.89844 2 2 2h5.3008v5h-7.3008c-1.1016 0-2 0.89844-2 2s0.89844 2 2 2h7.3008v5h-5.3008c-1.1016 0-2 0.89844-2 2s0.89844 2 2 2h5.3008v5h-7.3008c-1.1016 0-2 0.89844-2 2s0.89844 2 2 2h7.3008v5h-5.3008c-1.1016 0-2 0.89844-2 2s0.89844 2 2 2h5.1016c-0.90234 6.6016-6.4023 11.5-13.102 11.5-7.3008 0-13.301-6-13.301-13.301v-43.199h26.602zm0-9h-26.602v-9.1016h26.602zm4.3984-15.102c0 1.1016-0.89844 2-2 2h-31.398c-1.1016 0-2-0.89844-2-2v-6.3984c0-1.1016 0.89844-2 2-2h31.398c1.1016 0 2 0.89844 2 2z"
     id="path2" />
</svg>
